<?xml version="1.0" encoding="UTF-8"?>
<svg xmlns="http://www.w3.org/2000/svg" width="185" height="178" viewBox="0 0 185 178" fill="none">
  <path d="M134.695 58.874C152.326 79.1135 154.569 100.314 153.516 108.565C145.578 111.03 124.424 112.366 101.43 98.5172C78.1542 84.4982 79.1873 59.8131 82.6059 49.0829C92.5811 43.851 116.847 38.3861 134.695 58.874Z" fill="#224827"></path>
  <path d="M153.268 106.871C153.588 107.14 153.63 107.619 153.361 107.94L152.873 108.521C152.604 108.842 152.126 108.884 151.805 108.614L71.6127 41.3252L73.0755 39.5819L153.268 106.871Z" fill="#224827"></path>
  <path d="M70.9595 37.0181C70.7631 26.4063 75.472 19.4145 77.8882 17.183C80.9193 18.454 87.6663 23.4258 91.1112 33.4648C94.5984 43.6271 88.0114 50.8417 84.2487 53.223C79.8974 52.2724 71.1583 47.7602 70.9595 37.0181Z" fill="#3D8146"></path>
  <path d="M77.5329 17.7593C77.5041 17.5962 77.6131 17.4406 77.7762 17.4118L78.0716 17.3597C78.2347 17.331 78.3903 17.4399 78.4191 17.6031L85.6068 58.3669L84.7206 58.5231L77.5329 17.7593Z" fill="#3D8146"></path>
  <path d="M51.9305 75.379C34.641 89.3496 29.7629 106.317 29.4353 113.197C35.5551 116.349 52.6146 120.481 73.3583 112.493C94.3567 104.407 97.064 84.1269 95.819 74.8844C88.4362 69.1831 69.4324 61.2368 51.9305 75.379Z" fill="#326238"></path>
  <path d="M29.8817 111.852C29.5812 112.025 29.4783 112.409 29.6517 112.71L29.9658 113.254C30.1393 113.554 30.5235 113.657 30.824 113.484L105.9 70.1386L104.958 68.5065L29.8817 111.852Z" fill="#326238"></path>
  <path d="M135.068 124.343C135.43 143.921 126.742 156.821 122.284 160.939C116.692 158.594 104.244 149.42 97.8878 130.898C91.454 112.149 103.607 98.8381 110.549 94.4446C118.577 96.1984 134.701 104.523 135.068 124.343Z" fill="#326238"></path>
  <path d="M122.94 159.875C122.993 160.176 122.792 160.463 122.491 160.516L121.946 160.612C121.645 160.666 121.358 160.465 121.305 160.164L108.043 84.9541L109.678 84.6658L122.94 159.875Z" fill="#326238"></path>
  <path d="M72.6718 35.0134C61.449 25.2367 49.6932 23.9929 45.1181 24.5769C43.7512 28.9788 43.0103 40.7086 50.6896 53.4586C58.4632 66.3652 72.1511 65.7923 78.1011 63.8967C81.0021 58.3655 84.0324 44.91 72.6718 35.0134Z" fill="#326238"></path>
  <path d="M46.0574 24.7147C45.9081 24.5368 45.6428 24.5136 45.4648 24.6629L45.1426 24.9333C44.9646 25.0826 44.9414 25.3479 45.0908 25.5259L82.4027 69.9925L83.3694 69.1814L46.0574 24.7147Z" fill="#326238"></path>
  <ellipse cx="8.81369" cy="9.85059" rx="8.81369" ry="9.85059" transform="matrix(-0.173648 -0.984808 -0.984808 0.173648 143.807 62.3259)" fill="url(#paint0_linear_0_213)"></ellipse>
  <ellipse cx="8.81369" cy="9.85059" rx="8.81369" ry="9.85059" transform="matrix(-0.173648 -0.984808 -0.984808 0.173648 81.3245 64.2883)" fill="url(#paint1_linear_0_213)"></ellipse>
  <defs>
    <linearGradient id="paint0_linear_0_213" x1="8.81369" y1="0" x2="8.81369" y2="6.73988" gradientUnits="userSpaceOnUse">
      <stop stop-color="#A83143"></stop>
      <stop offset="1" stop-color="#D33F56"></stop>
    </linearGradient>
    <linearGradient id="paint1_linear_0_213" x1="8.81369" y1="0" x2="8.81369" y2="6.73988" gradientUnits="userSpaceOnUse">
      <stop stop-color="#A83143"></stop>
      <stop offset="1" stop-color="#D33F56"></stop>
    </linearGradient>
  </defs>
</svg>
